<svg fill="none" height="256" viewBox="0 0 256 256" width="256" xmlns="http://www.w3.org/2000/svg" xmlns:xlink="http://www.w3.org/1999/xlink"><filter id="a" color-interpolation-filters="sRGB" filterUnits="userSpaceOnUse" height="200" width="200" x="28" y="32"><feFlood flood-opacity="0" result="BackgroundImageFix"/><feColorMatrix in="SourceAlpha" type="matrix" values="0 0 0 0 0 0 0 0 0 0 0 0 0 0 0 0 0 0 127 0"/><feOffset dy="4"/><feGaussianBlur stdDeviation="2"/><feColorMatrix type="matrix" values="0 0 0 0 0 0 0 0 0 0 0 0 0 0 0 0 0 0 0.03 0"/><feBlend in2="BackgroundImageFix" mode="normal" result="effect1_dropShadow"/><feBlend in="SourceGraphic" in2="effect1_dropShadow" mode="normal" result="shape"/></filter><path d="m0 0h256v256h-256z" fill="#fafafa"/><g filter="url(#a)"><path clip-rule="evenodd" d="m48 224s-16 0-16-16 16-64 96-64 96 48 96 64-16 16-16 16zm80-96c12.73 0 24.939-5.057 33.941-14.059s14.059-21.2106 14.059-33.941-5.057-24.9394-14.059-33.9411c-9.002-9.0018-21.211-14.0589-33.941-14.0589s-24.939 5.0571-33.9411 14.0589c-9.0018 9.0017-14.0589 21.2107-14.0589 33.9411s5.0571 24.939 14.0589 33.941c9.0021 9.002 21.2111 14.059 33.9411 14.059z" fill="#dcdcdc" fill-rule="evenodd"/></g></svg>